<svg width="16" height="16" viewBox="0 0 16 16" fill="none" xmlns="http://www.w3.org/2000/svg">
<path fill-rule="evenodd" clip-rule="evenodd" d="M1.83398 8.00016C1.83398 4.59441 4.5949 1.8335 8.00065 1.8335C11.4064 1.8335 14.1673 4.59441 14.1673 8.00016C14.1673 11.4059 11.4064 14.1668 8.00065 14.1668C4.5949 14.1668 1.83398 11.4059 1.83398 8.00016ZM8.00065 0.833496C4.04261 0.833496 0.833984 4.04212 0.833984 8.00016C0.833984 11.9582 4.04261 15.1668 8.00065 15.1668C11.9587 15.1668 15.1673 11.9582 15.1673 8.00016C15.1673 4.04212 11.9587 0.833496 8.00065 0.833496ZM11.4657 6.02038C11.661 5.82512 11.661 5.50854 11.4657 5.31328C11.2705 5.11801 10.9539 5.11801 10.7586 5.31328L6.83442 9.2375L5.24353 7.64661C5.04826 7.45135 4.73168 7.45135 4.53642 7.64661C4.34116 7.84187 4.34116 8.15845 4.53642 8.35372L6.48086 10.2982C6.67613 10.4934 6.99271 10.4934 7.18797 10.2982L11.4657 6.02038Z" fill="#234CDA"/>
</svg>
