<svg width="12" height="12" viewBox="0 0 12 12" fill="none" xmlns="http://www.w3.org/2000/svg">
<path d="M8 2H9C9.26522 2 9.51957 2.10536 9.70711 2.29289C9.89464 2.48043 10 2.73478 10 3V10C10 10.2652 9.89464 10.5196 9.70711 10.7071C9.51957 10.8946 9.26522 11 9 11H3C2.73478 11 2.48043 10.8946 2.29289 10.7071C2.10536 10.5196 2 10.2652 2 10V3C2 2.73478 2.10536 2.48043 2.29289 2.29289C2.48043 2.10536 2.73478 2 3 2H4" stroke="#234CDA" stroke-linecap="round" stroke-linejoin="round"/>
<path d="M7.5 1H4.5C4.22386 1 4 1.22386 4 1.5V2.5C4 2.77614 4.22386 3 4.5 3H7.5C7.77614 3 8 2.77614 8 2.5V1.5C8 1.22386 7.77614 1 7.5 1Z" stroke="#234CDA" stroke-linecap="round" stroke-linejoin="round"/>
</svg>
