<svg width="114" height="24" viewBox="0 0 114 24" fill="none" xmlns="http://www.w3.org/2000/svg">
<path fill-rule="evenodd" clip-rule="evenodd" d="M16.5443 10.6758L21.0197 8.09187C21.1919 7.99246 21.2509 7.77228 21.1515 7.60009L20.3865 6.27503C20.2871 6.10284 20.0669 6.04385 19.8947 6.14326L15.4512 8.70879C14.5912 7.78062 13.3635 7.19995 12.0007 7.19995C10.6379 7.19995 9.41026 7.78063 8.55024 8.70881L4.10682 6.14333C3.93463 6.04392 3.71446 6.10291 3.61505 6.2751L2.85005 7.60016C2.75064 7.77235 2.80963 7.99252 2.98182 8.09194L7.45714 10.6758C7.3487 11.0737 7.29081 11.4926 7.29081 11.925C7.29081 14.1455 8.81769 16.0083 10.8756 16.5143V21.7655C10.8756 21.9643 11.0368 22.1255 11.2356 22.1255H12.7656C12.9645 22.1255 13.1256 21.9643 13.1256 21.7655V16.5143C15.1837 16.0084 16.7106 14.1456 16.7106 11.925C16.7106 11.4925 16.6527 11.0737 16.5443 10.6758ZM9.54813 11.925C9.54813 10.5553 10.653 9.45727 12.0007 9.45727C13.3484 9.45728 14.4533 10.5553 14.4533 11.925C14.4533 13.2946 13.3484 14.3926 12.0007 14.3926C10.653 14.3926 9.54813 13.2946 9.54813 11.925Z" fill="#476CEF"/>
<path d="M10.876 2.23524C10.876 2.03642 11.0372 1.87524 11.236 1.87524H12.766C12.9648 1.87524 13.126 2.03642 13.126 2.23524V5.26534C13.126 5.46416 12.9648 5.62534 12.766 5.62534H11.236C11.0372 5.62534 10.876 5.46416 10.876 5.26534V2.23524Z" fill="#94ABFF"/>
<path d="M21.0193 15.9089C21.1915 16.0083 21.2505 16.2285 21.1511 16.4006L20.3861 17.7257C20.2866 17.8979 20.0665 17.9569 19.8943 17.8575L17.2702 16.3424C17.098 16.243 17.039 16.0228 17.1385 15.8507L17.9035 14.5256C18.0029 14.3534 18.223 14.2944 18.3952 14.3938L21.0193 15.9089Z" fill="#94ABFF"/>
<path d="M4.10767 17.8566C3.93548 17.956 3.71531 17.897 3.6159 17.7248L2.8509 16.3998C2.75149 16.2276 2.81048 16.0074 2.98267 15.908L5.60672 14.393C5.77891 14.2936 5.99908 14.3526 6.09849 14.5247L6.86349 15.8498C6.9629 16.022 6.90391 16.2422 6.73172 16.3416L4.10767 17.8566Z" fill="#94ABFF"/>
<path d="M30.6195 17.8711C30.509 17.8711 30.4195 17.7816 30.4195 17.6711V8.34358C30.4195 8.23312 30.3299 8.14358 30.2195 8.14358H27.2C27.0895 8.14358 27 8.05404 27 7.94358V6.2C27 6.08954 27.0895 6 27.2 6H36.1C36.2104 6 36.3 6.08954 36.3 6.2V7.94358C36.3 8.05404 36.2104 8.14358 36.1 8.14358H33.1779C33.0675 8.14358 32.9779 8.23313 32.9779 8.34358V17.6711C32.9779 17.7816 32.8884 17.8711 32.7779 17.8711H30.6195Z" fill="#FBFBFD"/>
<path d="M40.1432 18.0785C39.325 18.0785 38.5874 17.8999 37.9305 17.5426C37.2736 17.1854 36.755 16.6725 36.3747 16.0041C35.9944 15.3357 35.8042 14.5289 35.8042 13.5839C35.8042 12.6504 35.9944 11.8495 36.3747 11.181C36.7665 10.5126 37.2736 9.99977 37.8959 9.6425C38.5183 9.27372 39.1694 9.08932 39.8494 9.08932C40.6676 9.08932 41.3418 9.27372 41.8719 9.6425C42.4136 9.99977 42.817 10.4896 43.082 11.1119C43.3586 11.7227 43.4969 12.4199 43.4969 13.2036C43.4969 13.4226 43.4854 13.6416 43.4623 13.8605C43.4489 13.981 43.4356 14.084 43.4222 14.1695C43.4077 14.2621 43.3265 14.3273 43.2328 14.3273H38.4994C38.3744 14.3273 38.2794 14.441 38.3112 14.5619C38.4441 15.0668 38.686 15.4496 39.0369 15.7102C39.4402 15.9983 39.9243 16.1424 40.489 16.1424C41.0406 16.1424 41.5968 15.9873 42.1578 15.6772C42.2576 15.622 42.3846 15.6554 42.4396 15.7552L43.0982 16.9515C43.1479 17.0417 43.1211 17.1552 43.0342 17.2103C42.6356 17.4631 42.1964 17.666 41.7164 17.8192C41.1747 17.9921 40.6503 18.0785 40.1432 18.0785ZM38.2899 12.4185C38.26 12.5387 38.3547 12.6504 38.4786 12.6504H41.136C41.2465 12.6504 41.337 12.5607 41.3288 12.4506C41.3002 12.0679 41.1874 11.7484 40.9903 11.4922C40.7713 11.181 40.4083 11.0255 39.9012 11.0255C39.5094 11.0255 39.1579 11.1638 38.8467 11.4403C38.5817 11.6661 38.3961 11.9921 38.2899 12.4185Z" fill="#FBFBFD"/>
<path d="M45.4529 17.8711C45.3424 17.8711 45.2529 17.7816 45.2529 17.6711V9.49676C45.2529 9.38631 45.3424 9.29676 45.4529 9.29676H47.149C47.2506 9.29676 47.3361 9.37297 47.3477 9.47393L47.4955 10.7596C47.4981 10.783 47.518 10.8007 47.5416 10.8007C47.5587 10.8007 47.5744 10.7913 47.5826 10.7763C47.8911 10.2124 48.2613 9.79416 48.693 9.52149C49.1309 9.23338 49.5689 9.08932 50.0068 9.08932C50.2488 9.08932 50.4505 9.10661 50.6118 9.14118C50.7126 9.15558 50.8044 9.17672 50.8872 9.2046C50.9719 9.23313 51.0153 9.3228 50.9987 9.41065L50.6534 11.2378C50.6312 11.355 50.5121 11.4263 50.396 11.3992C50.3181 11.381 50.2402 11.3659 50.1624 11.3539C50.0241 11.3309 49.8627 11.3193 49.6783 11.3193C49.3557 11.3193 49.0157 11.4403 48.6584 11.6824C48.3199 11.9081 48.0366 12.2995 47.8085 12.8567C47.7989 12.8802 47.7941 12.9055 47.7941 12.931V17.6711C47.7941 17.7816 47.7045 17.8711 47.5941 17.8711H45.4529Z" fill="#FBFBFD"/>
<path d="M52.3407 17.8711C52.2302 17.8711 52.1407 17.7816 52.1407 17.6711V9.49676C52.1407 9.38631 52.2302 9.29676 52.3407 9.29676H54.0368C54.1384 9.29676 54.2238 9.37297 54.2355 9.47393L54.3832 10.7596C54.3859 10.783 54.4058 10.8007 54.4294 10.8007C54.4465 10.8007 54.4622 10.7913 54.4704 10.7763C54.7789 10.2124 55.149 9.79416 55.5808 9.52149C56.0187 9.23338 56.4566 9.08932 56.8946 9.08932C57.1366 9.08932 57.3383 9.10661 57.4996 9.14118C57.6004 9.15558 57.6922 9.17672 57.775 9.2046C57.8597 9.23313 57.903 9.3228 57.8864 9.41065L57.5411 11.2378C57.519 11.355 57.3999 11.4263 57.2837 11.3992C57.2059 11.381 57.128 11.3659 57.0501 11.3539C56.9119 11.3309 56.7505 11.3193 56.5661 11.3193C56.2434 11.3193 55.9034 11.4403 55.5462 11.6824C55.2076 11.9081 54.9244 12.2995 54.6963 12.8567C54.6867 12.8802 54.6818 12.9055 54.6818 12.931V17.6711C54.6818 17.7816 54.5923 17.8711 54.4818 17.8711H52.3407Z" fill="#FBFBFD"/>
<path d="M60.6997 18.0785C59.916 18.0785 59.2937 17.8308 58.8327 17.3352C58.3717 16.8281 58.1413 16.2115 58.1413 15.4855C58.1413 14.5866 58.5216 13.8836 59.2822 13.3765C60.0139 12.8887 61.1776 12.5555 62.7733 12.377C62.8798 12.3651 62.9605 12.2717 62.944 12.1657C62.8985 11.8746 62.79 11.6386 62.6186 11.4576C62.4227 11.2271 62.0884 11.1119 61.6159 11.1119C61.2587 11.1119 60.8956 11.181 60.5269 11.3193C60.2114 11.4376 59.8792 11.5938 59.5301 11.788C59.4316 11.8427 59.3067 11.8082 59.2527 11.7093L58.5261 10.3795C58.4751 10.2861 58.5059 10.169 58.5977 10.1152C59.0917 9.82554 59.6137 9.58731 60.1638 9.40049C60.7862 9.19304 61.4315 9.08932 62.1 9.08932C63.1948 9.08932 64.0361 9.40625 64.6239 10.0401C65.2116 10.674 65.5055 11.6478 65.5055 12.9616V17.6711C65.5055 17.7816 65.416 17.8711 65.3055 17.8711H63.5957C63.5 17.8711 63.4178 17.8034 63.3994 17.7096L63.2673 17.0357C63.262 17.0088 63.2384 16.9895 63.2111 16.9895C63.1969 16.9895 63.1832 16.9947 63.1727 17.0042C62.82 17.3202 62.4394 17.5804 62.0308 17.7847C61.6275 17.9806 61.1838 18.0785 60.6997 18.0785ZM61.5641 16.1078C61.8522 16.1078 62.1 16.0444 62.3074 15.9177C62.5067 15.7918 62.706 15.6325 62.9052 15.4399C62.9434 15.403 62.9643 15.352 62.9643 15.2989V14.1051C62.9643 13.9845 62.8583 13.8912 62.739 13.909C61.9606 14.0252 61.4134 14.1992 61.0973 14.431C60.7516 14.673 60.5787 14.9611 60.5787 15.2953C60.5787 15.5719 60.6651 15.7794 60.838 15.9177C61.0224 16.0444 61.2644 16.1078 61.5641 16.1078Z" fill="#FBFBFD"/>
<path d="M69.8845 18.0785C69.3198 18.0785 68.7378 17.9691 68.1385 17.7501C67.6157 17.5553 67.1522 17.3058 66.7479 17.0017C66.6635 16.9381 66.648 16.8188 66.7096 16.733L67.623 15.4598C67.6879 15.3693 67.8141 15.3495 67.9054 15.4133C68.2379 15.6455 68.5576 15.8309 68.8646 15.9695C69.2334 16.1193 69.5964 16.1943 69.9537 16.1943C70.334 16.1943 70.6106 16.1309 70.7834 16.0041C70.9563 15.8658 71.0427 15.6872 71.0427 15.4682C71.0427 15.2723 70.9563 15.1109 70.7834 14.9842C70.6221 14.8574 70.4089 14.7422 70.1438 14.6384C69.8788 14.5232 69.5964 14.4079 69.2968 14.2927C68.951 14.1544 68.6053 13.9815 68.2596 13.7741C67.9253 13.5666 67.643 13.3016 67.4125 12.9789C67.182 12.6447 67.0667 12.2413 67.0667 11.7688C67.0667 10.9736 67.3664 10.3282 67.9657 9.83266C68.5765 9.3371 69.3717 9.08932 70.3513 9.08932C71.0082 9.08932 71.5844 9.20457 72.08 9.43506C72.5144 9.62264 72.8938 9.83136 73.2182 10.0612C73.3074 10.1244 73.3239 10.2486 73.2583 10.336L72.357 11.5377C72.2902 11.6268 72.1636 11.6437 72.0726 11.5794C71.8273 11.4061 71.582 11.2676 71.3366 11.1638C71.037 11.037 70.7374 10.9736 70.4377 10.9736C69.7808 10.9736 69.4524 11.1983 69.4524 11.6478C69.4524 11.9244 69.6137 12.1376 69.9364 12.2874C70.2706 12.4257 70.6567 12.5755 71.0946 12.7369C71.4634 12.8636 71.8207 13.0307 72.1664 13.2382C72.5237 13.4341 72.8175 13.6992 73.048 14.0334C73.2901 14.3561 73.4111 14.7825 73.4111 15.3126C73.4111 16.0848 73.1114 16.7417 72.5121 17.2833C71.9129 17.8135 71.037 18.0785 69.8845 18.0785Z" fill="#FBFBFD"/>
<path d="M78.4727 18.0785C77.4125 18.0785 76.6518 17.7731 76.1909 17.1623C75.7414 16.5515 75.5167 15.7506 75.5167 14.7594V11.4848C75.5167 11.3743 75.4271 11.2848 75.3167 11.2848H74.5412C74.4307 11.2848 74.3412 11.1952 74.3412 11.0848V9.58532C74.3412 9.48097 74.4214 9.39415 74.5254 9.38594L75.4931 9.30954C75.5874 9.3021 75.6636 9.22956 75.6757 9.13571L75.9264 7.18934C75.9392 7.08958 76.0242 7.01489 76.1247 7.01489H77.8578C77.9683 7.01489 78.0578 7.10443 78.0578 7.21489V9.09676C78.0578 9.20722 78.1474 9.29676 78.2578 9.29676H79.915C80.0255 9.29676 80.115 9.38631 80.115 9.49676V11.0848C80.115 11.1952 80.0255 11.2848 79.915 11.2848H78.2578C78.1474 11.2848 78.0578 11.3743 78.0578 11.4848V14.7249C78.0578 15.2089 78.1558 15.5604 78.3517 15.7794C78.5592 15.9868 78.83 16.0905 79.1642 16.0905C79.3025 16.0905 79.4408 16.0732 79.5791 16.0387C79.6397 16.0247 79.6975 16.0098 79.7524 15.9939C79.8715 15.9595 80.0005 16.0282 80.0265 16.1493L80.336 17.5894C80.3577 17.6903 80.2992 17.7913 80.1999 17.8194C80.0163 17.8712 79.8036 17.923 79.5618 17.9748C79.2506 18.044 78.8876 18.0785 78.4727 18.0785Z" fill="#FBFBFD"/>
<path d="M81.9886 17.8711C81.8781 17.8711 81.7886 17.7816 81.7886 17.6711V9.49676C81.7886 9.38631 81.8781 9.29676 81.9886 9.29676H83.6847C83.7863 9.29676 83.8718 9.37297 83.8834 9.47393L84.0312 10.7596C84.0339 10.783 84.0537 10.8007 84.0773 10.8007C84.0944 10.8007 84.1101 10.7913 84.1183 10.7763C84.4268 10.2124 84.797 9.79416 85.2287 9.52149C85.6666 9.23338 86.1046 9.08932 86.5425 9.08932C86.7845 9.08932 86.9862 9.10661 87.1475 9.14118C87.2483 9.15558 87.3401 9.17672 87.4229 9.2046C87.5076 9.23313 87.551 9.3228 87.5344 9.41065L87.1891 11.2378C87.1669 11.355 87.0478 11.4263 86.9317 11.3992C86.8538 11.381 86.7759 11.3659 86.6981 11.3539C86.5598 11.3309 86.3984 11.3193 86.2141 11.3193C85.8914 11.3193 85.5514 11.4403 85.1941 11.6824C84.8556 11.9081 84.5723 12.2995 84.3442 12.8567C84.3346 12.8802 84.3298 12.9055 84.3298 12.931V17.6711C84.3298 17.7816 84.2402 17.8711 84.1298 17.8711H81.9886Z" fill="#FBFBFD"/>
<path d="M91.2521 18.0785C90.3186 18.0785 89.6387 17.7731 89.2123 17.1623C88.7974 16.54 88.5899 15.6929 88.5899 14.6211V9.49676C88.5899 9.38631 88.6795 9.29676 88.7899 9.29676H90.9311C91.0416 9.29676 91.1311 9.38631 91.1311 9.49676V14.2927C91.1311 14.9035 91.2175 15.3299 91.3904 15.5719C91.5633 15.8024 91.8341 15.9177 92.2029 15.9177C92.5256 15.9177 92.7964 15.8428 93.0154 15.6929C93.2225 15.5512 93.4451 15.327 93.6832 15.0203C93.7099 14.9858 93.7242 14.9433 93.7242 14.8996V9.49676C93.7242 9.38631 93.8137 9.29676 93.9241 9.29676H96.0653C96.1758 9.29676 96.2653 9.38631 96.2653 9.49676V17.6711C96.2653 17.7816 96.1758 17.8711 96.0653 17.8711H94.3615C94.2632 17.8711 94.1795 17.7997 94.164 17.7026L94.006 16.7114C94.003 16.6923 93.9865 16.6783 93.9672 16.6783C93.9556 16.6783 93.9446 16.6835 93.9371 16.6924C93.583 17.1122 93.1951 17.4475 92.7734 17.6982C92.347 17.9518 91.8399 18.0785 91.2521 18.0785Z" fill="#FBFBFD"/>
<path d="M102.236 18.0785C101.44 18.0785 100.72 17.9057 100.075 17.5599C99.4408 17.2027 98.9337 16.6898 98.5534 16.0214C98.1846 15.3414 98.0002 14.5289 98.0002 13.5839C98.0002 12.6274 98.2077 11.8149 98.6226 11.1465C99.0375 10.478 99.5849 9.97096 100.265 9.62522C100.945 9.26795 101.677 9.08932 102.46 9.08932C102.99 9.08932 103.457 9.17576 103.861 9.34862C104.213 9.49556 104.533 9.6758 104.819 9.88935C104.903 9.95267 104.918 10.0724 104.856 10.158L103.899 11.4753C103.832 11.5687 103.699 11.5847 103.606 11.5172C103.263 11.27 102.933 11.1465 102.616 11.1465C102.005 11.1465 101.515 11.3654 101.146 11.8034C100.789 12.2413 100.611 12.8348 100.611 13.5839C100.611 14.3215 100.789 14.915 101.146 15.3645C101.515 15.8024 101.976 16.0214 102.529 16.0214C102.806 16.0214 103.077 15.9638 103.342 15.8485C103.536 15.7559 103.717 15.6511 103.886 15.5339C103.985 15.4653 104.123 15.4901 104.185 15.5931L104.983 16.9142C105.034 16.9976 105.017 17.1056 104.941 17.1666C104.551 17.4796 104.133 17.7087 103.688 17.8538C103.192 18.0036 102.708 18.0785 102.236 18.0785Z" fill="#FBFBFD"/>
<path d="M110.004 18.0785C108.944 18.0785 108.183 17.7731 107.722 17.1623C107.273 16.5515 107.048 15.7506 107.048 14.7594V11.4848C107.048 11.3743 106.958 11.2848 106.848 11.2848H106.072C105.962 11.2848 105.872 11.1952 105.872 11.0848V9.58532C105.872 9.48097 105.953 9.39415 106.057 9.38594L107.024 9.30954C107.119 9.3021 107.195 9.22956 107.207 9.13571L107.458 7.18934C107.471 7.08958 107.555 7.01489 107.656 7.01489H109.389C109.5 7.01489 109.589 7.10443 109.589 7.21489V9.09676C109.589 9.20722 109.679 9.29676 109.789 9.29676H111.446C111.557 9.29676 111.646 9.38631 111.646 9.49676V11.0848C111.646 11.1952 111.557 11.2848 111.446 11.2848H109.789C109.679 11.2848 109.589 11.3743 109.589 11.4848V14.7249C109.589 15.2089 109.687 15.5604 109.883 15.7794C110.09 15.9868 110.361 16.0905 110.696 16.0905C110.834 16.0905 110.972 16.0732 111.11 16.0387C111.171 16.0247 111.229 16.0098 111.284 15.9939C111.403 15.9595 111.532 16.0282 111.558 16.1493L111.867 17.5894C111.889 17.6903 111.83 17.7913 111.731 17.8194C111.548 17.8712 111.335 17.923 111.093 17.9748C110.782 18.044 110.419 18.0785 110.004 18.0785Z" fill="#FBFBFD"/>
</svg>
