<svg width="18" height="18" viewBox="0 0 18 18" fill="none" xmlns="http://www.w3.org/2000/svg">
<path d="M6.71008 14.2383L6.69214 14.2409C6.69648 14.2699 6.68453 14.2998 6.65743 14.3265C6.63031 14.3532 6.58907 14.3754 6.53902 14.3875C6.48802 14.3994 6.44138 14.3941 6.40691 14.3783C6.37244 14.3625 6.35137 14.337 6.347 14.3083C6.3381 14.2393 6.39781 14.1758 6.49903 14.1509C6.54817 14.1461 6.59505 14.1547 6.63044 14.172C6.66649 14.1896 6.68798 14.2146 6.69216 14.2411L6.71008 14.2383ZM6.71008 14.2383C6.72097 14.3108 6.64839 14.3798 6.54315 14.4052L6.49597 14.133C6.60121 14.1221 6.69919 14.1693 6.71008 14.2383ZM5.83185 14.4705V14.4704L5.83021 14.4706C5.77342 14.4758 5.72696 14.4644 5.69531 14.4436C5.66401 14.423 5.64677 14.393 5.64677 14.358C5.64677 14.3293 5.66326 14.3016 5.69386 14.2804C5.72444 14.2592 5.76788 14.2455 5.81734 14.2455V14.2456L5.81914 14.2454C5.87007 14.2403 5.91671 14.2515 5.95006 14.2726C5.98328 14.2937 6.00242 14.3239 6.00242 14.358C6.00242 14.3868 5.98594 14.4144 5.95534 14.4356C5.92476 14.4568 5.88131 14.4705 5.83185 14.4705ZM5.0545 14.3556L5.05459 14.3553L5.05154 14.3547C5.00053 14.3445 4.9589 14.32 4.93326 14.2907C4.9076 14.2614 4.89914 14.2291 4.90906 14.2007C4.91942 14.1711 4.94683 14.147 4.98476 14.1333C5.02243 14.1196 5.06841 14.117 5.11196 14.1287C5.1634 14.1442 5.2045 14.1714 5.22997 14.2022C5.25551 14.2331 5.26424 14.2659 5.2556 14.2947C5.24696 14.3236 5.22018 14.3474 5.18208 14.3598C5.14425 14.3722 5.09773 14.3722 5.0545 14.3556ZM6.7429 15.1182L6.75 15.1168C6.7501 15.4951 6.75277 15.985 6.75544 16.4103C6.75625 16.5387 6.75706 16.6612 6.75779 16.7729C6.75954 17.0387 6.76089 17.2438 6.76089 17.3229C6.76089 17.4371 6.72132 17.5624 6.62705 17.6489C6.53351 17.7347 6.38316 17.785 6.15572 17.7444C2.5457 16.5345 0.0181452 13.0978 0.0181452 9.0814C0.0181452 4.05803 3.86035 0.244708 8.88387 0.244708C13.908 0.244708 17.9819 4.05864 17.9819 9.0814C17.9819 13.0981 15.5266 16.5345 11.906 17.7372C11.6804 17.7777 11.53 17.7275 11.436 17.6416C11.3412 17.5551 11.3008 17.4298 11.3008 17.3157C11.3008 17.2174 11.302 16.9864 11.3036 16.6769C11.3044 16.5181 11.3053 16.3386 11.3062 16.1459C11.309 15.5775 11.3117 14.8933 11.3117 14.2818C11.3117 13.451 11.0442 12.9088 10.7191 12.6114C11.7198 12.4983 12.7488 12.3674 13.5306 11.8354C14.325 11.2949 14.8609 10.3429 14.8609 8.58785C14.8609 8.08831 14.7715 7.71172 14.6086 7.37912C14.4474 7.04979 14.2145 6.76454 13.9275 6.44655C14.0273 6.19091 14.3213 5.22665 13.829 3.97958L13.8258 3.97154L13.8176 3.96894C13.6226 3.90736 13.3668 3.94002 13.0957 4.02091C12.8238 4.102 12.5334 4.23252 12.2673 4.37023C12.0011 4.50798 11.7588 4.6532 11.583 4.76395C11.4951 4.81933 11.4238 4.86611 11.3745 4.89906C11.3498 4.91554 11.3306 4.92856 11.3176 4.93747L11.3047 4.94631C10.5796 4.74413 9.8007 4.63947 9.02903 4.63947C8.25736 4.63947 7.47843 4.74413 6.75331 4.94632L6.74044 4.93749C6.72741 4.92861 6.70824 4.91563 6.68357 4.8992C6.63425 4.86634 6.56296 4.81968 6.47506 4.76444C6.29928 4.65398 6.05693 4.50911 5.79074 4.37158C5.52465 4.23411 5.23422 4.1037 4.9624 4.02244C4.69126 3.94139 4.43556 3.90827 4.24058 3.96891L4.23229 3.97149L4.2291 3.97956C3.73674 5.22302 4.03072 6.19074 4.13059 6.44652C3.84355 6.76312 3.63041 7.04764 3.48897 7.37722C3.34622 7.70985 3.27702 8.08712 3.27702 8.58785C3.27702 10.3372 3.79005 11.2901 4.56169 11.8325C5.32155 12.3667 6.32895 12.5002 7.32959 12.6116C7.07797 12.8556 6.8555 13.2507 6.77339 13.8085C6.5137 13.9272 6.05924 14.0823 5.57218 14.0387C5.08077 13.9948 4.5545 13.7486 4.16014 13.0535L4.16008 13.0534C3.9091 12.6174 3.55545 12.381 3.26479 12.2538C3.11948 12.1902 2.98982 12.1538 2.8964 12.1333C2.84968 12.123 2.812 12.1167 2.78592 12.113C2.77287 12.1111 2.76273 12.1099 2.7558 12.1091L2.74787 12.1083L2.74579 12.1081L2.74523 12.1081L2.74507 12.1081L2.74503 12.1081L2.74355 12.1262L2.745 12.108L2.74377 12.108C2.63184 12.1066 2.54598 12.1144 2.48166 12.1294C2.41759 12.1443 2.37303 12.1669 2.34595 12.1967C2.31813 12.2273 2.31052 12.2636 2.31654 12.3011C2.32242 12.3377 2.34127 12.3755 2.36613 12.4118C2.4159 12.4844 2.49359 12.5566 2.55792 12.6101C2.59025 12.637 2.61951 12.6594 2.64071 12.6751C2.65131 12.683 2.6599 12.6892 2.66586 12.6934L2.67275 12.6983L2.67457 12.6995L2.67504 12.6999L2.67517 12.7L2.67521 12.7L2.68548 12.685L2.67507 12.7002L2.67794 12.7015C2.97007 12.8351 3.21988 13.1628 3.39752 13.4605C3.48604 13.6089 3.55606 13.7488 3.60396 13.8517C3.62791 13.9031 3.64631 13.9452 3.65871 13.9744C3.66491 13.9891 3.66961 14.0004 3.67276 14.0082L3.6763 14.0169L3.67718 14.0192L3.67728 14.0194C3.94766 14.8426 4.72588 15.1144 5.42957 15.1817C5.78203 15.2154 6.11751 15.1981 6.36476 15.1724C6.48842 15.1596 6.59011 15.1446 6.66092 15.1328C6.69633 15.1269 6.72403 15.1219 6.7429 15.1182ZM3.53848 12.7575L3.53858 12.7576L3.54025 12.7559C3.55821 12.738 3.58382 12.7327 3.61368 12.7395C3.64362 12.7463 3.67591 12.765 3.70294 12.7919C3.73166 12.8241 3.74772 12.8588 3.75167 12.8884C3.75563 12.9181 3.74745 12.9407 3.73047 12.9537L3.73038 12.9536L3.7287 12.9553C3.71075 12.9732 3.68513 12.9785 3.65527 12.9717C3.62534 12.9649 3.59304 12.9462 3.56601 12.9193C3.53729 12.8871 3.52123 12.8524 3.51728 12.8228C3.51332 12.7931 3.5215 12.7705 3.53848 12.7575ZM3.13548 12.4491L3.15035 12.4595C3.15055 12.4593 3.15076 12.459 3.15096 12.4587C3.15113 12.4584 3.15129 12.4581 3.15146 12.4577L3.13548 12.4491ZM3.28481 12.4407C3.28531 12.4408 3.28581 12.441 3.28632 12.4411L3.29153 12.4237L3.28342 12.44C3.28388 12.4402 3.28435 12.4404 3.28481 12.4407ZM4.32273 13.7552L4.32298 13.7555L4.32537 13.7525C4.34391 13.7297 4.37585 13.7188 4.41453 13.7241C4.45309 13.7294 4.49663 13.7508 4.53406 13.7899L4.53468 13.7905C4.56831 13.8225 4.59004 13.8636 4.59791 13.9017C4.6059 13.9404 4.59903 13.972 4.58152 13.9895L4.58146 13.9895L4.58027 13.9909C4.56166 14.0138 4.53056 14.0246 4.49251 14.0193C4.45442 14.0141 4.41073 13.9927 4.3713 13.9532L4.37136 13.9532L4.37002 13.9521C4.33116 13.92 4.30728 13.879 4.29957 13.8417C4.29184 13.8043 4.30059 13.7732 4.32273 13.7552ZM3.9072 13.223L3.90727 13.2231L3.90902 13.2217C3.93191 13.2031 3.9629 13.2 3.99568 13.212C4.02858 13.224 4.06179 13.251 4.08531 13.2896L4.08528 13.2896L4.08591 13.2906C4.14131 13.3702 4.13676 13.4524 4.08956 13.4909C4.07329 13.5033 4.04482 13.5054 4.00998 13.4915C3.97581 13.4779 3.93958 13.4503 3.91248 13.4114C3.88516 13.3721 3.87218 13.3312 3.87218 13.297C3.87218 13.2629 3.88484 13.237 3.9072 13.223ZM4.10081 13.5052C4.15887 13.458 4.15887 13.3637 4.10081 13.2802V13.5052Z" fill="#0A0F25" stroke="#2E3346" stroke-width="0.0362903"/>
</svg>
