<svg width="24" height="24" viewBox="0 0 24 24" fill="none" xmlns="http://www.w3.org/2000/svg">
<rect x="7.30469" y="13.0625" width="4.95794" height="2.65564" rx="0.269972" transform="rotate(45 7.30469 13.0625)" stroke="#2E3346"/>
<path fill-rule="evenodd" clip-rule="evenodd" d="M7.8891 8.61105L14.0859 2.41421L21.3609 9.68918L15.134 15.916C14.5552 16.4949 13.6167 16.4949 13.0378 15.916L12.9613 15.8396C12.0392 14.9174 10.547 14.9125 9.61877 15.8248L10.2398 16.4459C10.2708 16.4768 10.2926 16.5134 10.3054 16.5523L10.311 16.5467C10.8476 16.0101 11.7176 16.0101 12.2542 16.5467L12.3307 16.6232C13.3001 17.5925 14.8718 17.5925 15.8411 16.6232L22.1352 10.3291C22.4886 9.97567 22.4886 9.40269 22.1352 9.04928L14.7258 1.6399C14.3724 1.28649 13.7994 1.28649 13.446 1.6399L7.18199 7.90394C6.19603 8.8899 6.19603 10.4885 7.18199 11.4744C7.74473 12.0371 7.77563 12.9303 7.2747 13.5294C7.31775 13.5415 7.35838 13.5644 7.39225 13.5983L8.00635 14.2124C8.87337 13.2207 8.83429 11.7125 7.8891 10.7673C7.29367 10.1719 7.29367 9.20648 7.8891 8.61105ZM6.54804 15.6788L5.92989 15.0607C5.89777 15.0286 5.87543 14.9904 5.86288 14.9498L3.37365 17.439C2.539 18.2737 2.539 19.6269 3.37365 20.4615C4.20829 21.2962 5.56152 21.2962 6.39617 20.4615L8.86391 17.9938L8.88386 17.9738C8.84497 17.9611 8.8084 17.9392 8.77748 17.9083L8.15634 17.2871L5.68906 19.7544C5.24494 20.1985 4.52488 20.1985 4.08076 19.7544C3.63664 19.3103 3.63664 18.5902 4.08076 18.1461L6.54804 15.6788Z" fill="#2E3346"/>
<path d="M8.46094 7.64844L16.4417 15.6292" stroke="#2E3346"/>
<path d="M15.0312 2.94922L12.684 5.2965" stroke="#2E3346" stroke-linecap="round" stroke-linejoin="round"/>
<path d="M16.4414 4.35938L12.6858 8.11502" stroke="#2E3346" stroke-linecap="round" stroke-linejoin="round"/>
<path d="M17.8477 5.76562L16.4393 7.17399" stroke="#2E3346" stroke-linecap="round" stroke-linejoin="round"/>
<path d="M19.2578 7.17578L16.9105 9.52306" stroke="#2E3346" stroke-linecap="round" stroke-linejoin="round"/>
<path d="M20.6641 8.58594L19.2557 9.99431" stroke="#2E3346" stroke-linecap="round" stroke-linejoin="round"/>
</svg>
