<svg width="24" height="24" viewBox="0 0 24 24" fill="none" xmlns="http://www.w3.org/2000/svg">
<path fill-rule="evenodd" clip-rule="evenodd" d="M2.5 6C2.5 5.72386 2.72386 5.5 3 5.5H19C19.2761 5.5 19.5 5.72386 19.5 6C19.5 6.27614 19.2761 6.5 19 6.5H3C2.72386 6.5 2.5 6.27614 2.5 6ZM3 9.5C2.72386 9.5 2.5 9.72386 2.5 10C2.5 10.2761 2.72386 10.5 3 10.5H13C13.2761 10.5 13.5 10.2761 13.5 10C13.5 9.72386 13.2761 9.5 13 9.5H3ZM2.5 14C2.5 13.7239 2.72386 13.5 3 13.5H11C11.2761 13.5 11.5 13.7239 11.5 14C11.5 14.2761 11.2761 14.5 11 14.5H3C2.72386 14.5 2.5 14.2761 2.5 14ZM2.5 18C2.5 17.7239 2.72386 17.5 3 17.5H15C15.2761 17.5 15.5 17.7239 15.5 18C15.5 18.2761 15.2761 18.5 15 18.5H3C2.72386 18.5 2.5 18.2761 2.5 18ZM18.5 8C18.5 7.77328 18.3475 7.57494 18.1283 7.51675C17.9092 7.45856 17.6784 7.55509 17.5659 7.75193L13.5659 14.7519C13.4774 14.9067 13.4781 15.0968 13.5675 15.251C13.657 15.4051 13.8218 15.5 14 15.5H17V19.5C17 19.7294 17.1561 19.9294 17.3787 19.9851C17.6013 20.0407 17.8332 19.9377 17.9412 19.7353L21.9412 12.2353C22.0238 12.0803 22.0191 11.8934 21.9287 11.7428C21.8384 11.5921 21.6756 11.5 21.5 11.5H18.5V8ZM17.5 14.5H14.8616L17.5 9.88278V12C17.5 12.2761 17.7239 12.5 18 12.5H20.6667L18 17.5V15C18 14.7239 17.7761 14.5 17.5 14.5Z" fill="#2E3346"/>
</svg>
