<svg width="69" height="68" viewBox="0 0 69 68" fill="none" xmlns="http://www.w3.org/2000/svg">
<path d="M64.2 32.2066C64.2 49.4376 50.2313 63.4061 33 63.4061C15.7687 63.4061 1.79999 49.4376 1.79999 32.2066C1.79999 14.9755 15.7687 1.00702 33 1.00702C50.2313 1.00702 64.2 14.9755 64.2 32.2066Z" fill="url(#paint0_linear_1948_13448)" stroke="url(#paint1_linear_1948_13448)" stroke-width="1.59999"/>
<g filter="url(#filter0_f_1948_13448)">
<path fill-rule="evenodd" clip-rule="evenodd" d="M54.3601 11.2839C49.7486 8.36131 44.2801 6.66918 38.4165 6.66918C21.9448 6.66918 8.59182 20.0219 8.59182 36.4934C8.59182 44.6314 11.8513 52.008 17.1359 57.3892C8.79311 52.102 3.25488 42.7876 3.25488 32.1797C3.25488 15.7082 16.6078 2.35547 33.0795 2.35547C41.4132 2.35547 48.9485 5.77339 54.3601 11.2839Z" fill="url(#paint2_linear_1948_13448)"/>
</g>
<g filter="url(#filter1_f_1948_13448)">
<path fill-rule="evenodd" clip-rule="evenodd" d="M11.546 53.7324C16.2575 56.7163 21.8436 58.4437 27.8331 58.4437C44.6679 58.4437 58.3153 44.7966 58.3153 27.962C58.3153 19.6415 54.9815 12.0996 49.5768 6.59928C58.108 12.0022 63.772 21.5246 63.772 32.3698C63.772 49.2044 50.1246 62.8516 33.2897 62.8516C24.7755 62.8516 17.0765 59.3608 11.546 53.7324Z" fill="url(#paint3_linear_1948_13448)" fill-opacity="0.06"/>
</g>
<g filter="url(#filter2_ii_1948_13448)">
<path d="M44.2284 21.4529C42.1251 20.4839 39.8696 19.77 37.5113 19.3611C37.4684 19.3532 37.4255 19.3729 37.4034 19.4124C37.1133 19.9304 36.792 20.6061 36.567 21.1373C34.0305 20.756 31.5071 20.756 29.0227 21.1373C28.7976 20.5943 28.4646 19.9304 28.1733 19.4124C28.1511 19.3742 28.1082 19.3545 28.0653 19.3611C25.7084 19.7687 23.4529 20.4826 21.3483 21.4529C21.33 21.4608 21.3144 21.4739 21.3041 21.491C17.0259 27.9083 15.8539 34.1679 16.4289 40.3499C16.4315 40.3801 16.4484 40.4091 16.4718 40.4274C19.2944 42.5087 22.0286 43.7722 24.712 44.6097C24.7549 44.6228 24.8004 44.607 24.8278 44.5715C25.4625 43.7012 26.0284 42.7835 26.5135 41.8184C26.5421 41.7619 26.5148 41.6949 26.4563 41.6725C25.5588 41.3307 24.7042 40.9139 23.8821 40.4406C23.8171 40.4025 23.8119 40.3091 23.8717 40.2644C24.0447 40.1342 24.2177 39.9988 24.3829 39.8621C24.4128 39.8371 24.4544 39.8318 24.4896 39.8476C29.8902 42.3233 35.7371 42.3233 41.074 39.8476C41.1092 39.8305 41.1508 39.8358 41.182 39.8608C41.3472 39.9975 41.5202 40.1342 41.6945 40.2644C41.7544 40.3091 41.7504 40.4025 41.6854 40.4406C40.8634 40.9231 40.0087 41.3307 39.1099 41.6712C39.0514 41.6936 39.0254 41.7619 39.054 41.8184C39.5496 42.7821 40.1154 43.6998 40.7385 44.5702C40.7645 44.607 40.8113 44.6228 40.8542 44.6097C43.5507 43.7722 46.2848 42.5087 49.1074 40.4274C49.1322 40.4091 49.1478 40.3814 49.1504 40.3512C49.8385 33.2041 47.9979 26.9959 44.2713 21.4923C44.2622 21.4739 44.2466 21.4608 44.2284 21.4529ZM27.32 36.5857C25.694 36.5857 24.3543 35.0869 24.3543 33.2462C24.3543 31.4056 25.6681 29.9068 27.32 29.9068C28.9849 29.9068 30.3117 31.4187 30.2857 33.2462C30.2857 35.0869 28.9719 36.5857 27.32 36.5857ZM38.2853 36.5857C36.6593 36.5857 35.3196 35.0869 35.3196 33.2462C35.3196 31.4056 36.6333 29.9068 38.2853 29.9068C39.9502 29.9068 41.277 31.4187 41.251 33.2462C41.251 35.0869 39.9502 36.5857 38.2853 36.5857Z" fill="#0A0F25"/>
</g>
<path d="M44.0611 21.6887C47.723 27.1123 49.5339 33.2183 48.875 40.2457C46.1464 42.2465 43.5029 43.4767 40.8944 44.2993C40.3464 43.5246 39.8447 42.7127 39.3983 41.8646C40.2433 41.5335 41.0505 41.1427 41.8291 40.6857C42.0739 40.5422 42.0831 40.2001 41.8646 40.0368L41.8645 40.0367C41.6944 39.9096 41.5251 39.7759 41.3632 39.6419L41.3632 39.6418L41.3596 39.6389C41.2475 39.5492 41.0904 39.5252 40.9528 39.5906C35.6926 42.0302 29.9334 42.0305 24.608 39.5893L24.606 39.5884C24.4735 39.5289 24.3157 39.548 24.2007 39.644L24.3829 39.8621M44.0611 21.6887L16.4289 40.3499C15.8539 34.1679 17.0259 27.9083 21.3041 21.491C21.3144 21.4739 21.33 21.4608 21.3483 21.4529C23.4529 20.4826 25.7084 19.7687 28.0653 19.3611M44.0611 21.6887C42.0312 20.7584 39.8589 20.0681 37.5894 19.6633C37.3222 20.1536 37.0345 20.762 36.8286 21.2481L36.7427 21.451L36.5247 21.4183C34.016 21.0412 31.5214 21.0413 29.0658 21.4182L28.8455 21.452L28.7602 21.2461C28.5561 20.7538 28.2591 20.155 27.9877 19.6632C25.7184 20.0669 23.545 20.7576 21.513 21.6898C17.3138 28.0079 16.1535 34.1627 16.7047 40.246C19.4335 42.247 22.0772 43.4771 24.6738 44.2998C25.2309 43.5257 25.7325 42.7146 26.1702 41.8663C25.3245 41.5326 24.5173 41.1341 23.7403 40.6868L23.7384 40.6857C23.4994 40.5456 23.4779 40.2044 23.7012 40.0371M44.0611 21.6887L23.8821 40.4406C23.8171 40.4025 23.8119 40.3091 23.8717 40.2644M24.3829 39.8621C24.2177 39.9988 24.0447 40.1342 23.8717 40.2644M24.3829 39.8621L24.2017 39.6432C24.0407 39.7765 23.8713 39.9091 23.7012 40.0371M24.3829 39.8621C24.4128 39.8371 24.4544 39.8318 24.4896 39.8476C29.8902 42.3233 35.7371 42.3233 41.074 39.8476C41.1092 39.8305 41.1508 39.8358 41.182 39.8608C41.3472 39.9975 41.5202 40.1342 41.6945 40.2644C41.7544 40.3091 41.7504 40.4025 41.6854 40.4406C40.8634 40.9231 40.0087 41.3307 39.1099 41.6712M23.8717 40.2644L23.7016 40.0368C23.7015 40.0369 23.7014 40.037 23.7012 40.0371M23.8717 40.2644L23.7009 40.0373C23.701 40.0372 23.7011 40.0371 23.7012 40.0371M39.1099 41.6712C39.0514 41.6936 39.0254 41.7619 39.054 41.8184M39.1099 41.6712L39.1475 41.7704M39.1099 41.6712L39.1478 41.7702L39.1475 41.7704M39.054 41.8184C39.5496 42.7821 40.1154 43.6998 40.7385 44.5702C40.7645 44.607 40.8113 44.6228 40.8542 44.6097C43.5507 43.7722 46.2848 42.5087 49.1074 40.4274C49.1322 40.4091 49.1478 40.3814 49.1504 40.3512C49.8385 33.2041 47.9979 26.9959 44.2713 21.4923C44.2622 21.4739 44.2466 21.4608 44.2284 21.4529C42.1251 20.4839 39.8696 19.77 37.5113 19.3611C37.4684 19.3532 37.4255 19.3729 37.4034 19.4124C37.1133 19.9304 36.792 20.6061 36.567 21.1373C34.0305 20.756 31.5071 20.756 29.0227 21.1373C28.7976 20.5943 28.4646 19.9304 28.1733 19.4124M39.054 41.8184L39.1475 41.7704M39.054 41.8184L39.1477 41.771L39.1475 41.7704M28.1733 19.4124C28.1511 19.3742 28.1082 19.3545 28.0653 19.3611M28.1733 19.4124L28.083 19.4632L28.0653 19.3611M28.1733 19.4124L28.0832 19.4646L28.0811 19.4642L28.0653 19.3611M28.0813 19.4657L28.1083 19.642C28.0388 19.6526 27.9656 19.6206 27.9275 19.555L28.0813 19.4657ZM16.712 40.3255L16.7118 40.3236L16.712 40.3255ZM39.148 41.7708L39.3075 41.69C39.3537 41.7812 39.3131 41.8978 39.2113 41.9366L39.148 41.7708ZM40.9705 44.4062L40.9695 44.4048L40.9705 44.4062ZM24.0701 33.2462C24.0701 35.2118 25.5069 36.8698 27.32 36.8698C29.16 36.8698 30.5689 35.2112 30.5698 33.2483C30.5967 31.293 29.1711 29.6226 27.32 29.6226C25.4794 29.6226 24.0701 31.2824 24.0701 33.2462ZM35.0354 33.2462C35.0354 35.2118 36.4721 36.8698 38.2853 36.8698C40.139 36.8698 41.5342 35.2103 41.5351 33.2483C41.5619 31.293 40.1364 29.6226 38.2853 29.6226C36.4446 29.6226 35.0354 31.2824 35.0354 33.2462Z" stroke="url(#paint4_linear_1948_13448)" stroke-opacity="0.24" stroke-width="0.568284"/>
<g opacity="0.3" filter="url(#filter3_f_1948_13448)">
<path d="M46.7284 24.0935C44.6251 23.1245 42.3696 22.4106 40.0113 22.0017C39.9684 21.9938 39.9255 22.0135 39.9034 22.053C39.7758 22.2808 39.6422 22.5391 39.5134 22.8022C39.2357 23.3695 38.6307 23.7083 38.0028 23.6402C36.1897 23.4437 34.3851 23.4426 32.5985 23.6369C31.9651 23.7058 31.353 23.3627 31.0667 22.7935C30.9359 22.5336 30.8006 22.2794 30.6733 22.053C30.6511 22.0149 30.6082 21.9951 30.5653 22.0017C28.2084 22.4093 25.9529 23.1232 23.8483 24.0935C23.83 24.1014 23.8144 24.1145 23.8041 24.1316C19.5259 30.5489 18.3539 36.8085 18.9289 42.9905C18.9315 43.0207 18.9484 43.0497 18.9718 43.0681C21.7944 45.1493 24.5286 46.4128 27.212 47.2503C27.2549 47.2634 27.3004 47.2477 27.3278 47.2122C27.9625 46.3418 28.5284 45.4241 29.0135 44.4591C29.0421 44.4025 29.0148 44.3355 28.9563 44.3131C28.0588 43.9713 27.2042 43.5545 26.3821 43.0812C26.3171 43.0431 26.3119 42.9497 26.3717 42.905C26.5447 42.7749 26.7177 42.6394 26.8829 42.5027C26.9128 42.4777 26.9544 42.4725 26.9896 42.4882C32.3902 44.9639 38.2371 44.9639 43.574 42.4882C43.6092 42.4712 43.6508 42.4764 43.682 42.5014C43.8472 42.6381 44.0202 42.7749 44.1945 42.905C44.2544 42.9497 44.2504 43.0431 44.1854 43.0812C43.3634 43.5637 42.5087 43.9713 41.6099 44.3118C41.5514 44.3342 41.5254 44.4025 41.554 44.4591C42.0496 45.4228 42.6154 46.3405 43.2385 47.2109C43.2645 47.2477 43.3113 47.2634 43.3542 47.2503C46.0507 46.4128 48.7848 45.1493 51.6074 43.0681C51.6322 43.0497 51.6478 43.0221 51.6504 42.9918C52.3385 35.8448 50.4979 29.6365 46.7713 24.1329C46.7622 24.1145 46.7466 24.1014 46.7284 24.0935ZM29.82 39.2263C28.194 39.2263 26.8543 37.7275 26.8543 35.8869C26.8543 34.0462 28.1681 32.5474 29.82 32.5474C31.4849 32.5474 32.8117 34.0593 32.7857 35.8869C32.7857 37.7275 31.4719 39.2263 29.82 39.2263ZM40.7853 39.2263C39.1593 39.2263 37.8196 37.7275 37.8196 35.8869C37.8196 34.0462 39.1333 32.5474 40.7853 32.5474C42.4502 32.5474 43.777 34.0593 43.751 35.8869C43.751 37.7275 42.4502 39.2263 40.7853 39.2263Z" fill="#0E1A4B"/>
</g>
<defs>
<filter id="filter0_f_1948_13448" x="0.8997" y="0.000285625" width="55.8158" height="59.7455" filterUnits="userSpaceOnUse" color-interpolation-filters="sRGB">
<feFlood flood-opacity="0" result="BackgroundImageFix"/>
<feBlend mode="normal" in="SourceGraphic" in2="BackgroundImageFix" result="shape"/>
<feGaussianBlur stdDeviation="1.17759" result="effect1_foregroundBlur_1948_13448"/>
</filter>
<filter id="filter1_f_1948_13448" x="6.42594" y="1.47769" width="62.466" height="66.4938" filterUnits="userSpaceOnUse" color-interpolation-filters="sRGB">
<feFlood flood-opacity="0" result="BackgroundImageFix"/>
<feBlend mode="normal" in="SourceGraphic" in2="BackgroundImageFix" result="shape"/>
<feGaussianBlur stdDeviation="2.55998" result="effect1_foregroundBlur_1948_13448"/>
</filter>
<filter id="filter2_ii_1948_13448" x="12.5827" y="15.6496" width="39.3284" height="31.5823" filterUnits="userSpaceOnUse" color-interpolation-filters="sRGB">
<feFlood flood-opacity="0" result="BackgroundImageFix"/>
<feBlend mode="normal" in="SourceGraphic" in2="BackgroundImageFix" result="shape"/>
<feColorMatrix in="SourceAlpha" type="matrix" values="0 0 0 0 0 0 0 0 0 0 0 0 0 0 0 0 0 0 127 0" result="hardAlpha"/>
<feOffset dx="2.61865" dy="2.61865"/>
<feGaussianBlur stdDeviation="2.18221"/>
<feComposite in2="hardAlpha" operator="arithmetic" k2="-1" k3="1"/>
<feColorMatrix type="matrix" values="0 0 0 0 1 0 0 0 0 1 0 0 0 0 1 0 0 0 0.35 0"/>
<feBlend mode="normal" in2="shape" result="effect1_innerShadow_1948_13448"/>
<feColorMatrix in="SourceAlpha" type="matrix" values="0 0 0 0 0 0 0 0 0 0 0 0 0 0 0 0 0 0 127 0" result="hardAlpha"/>
<feOffset dx="-3.70976" dy="-3.70976"/>
<feGaussianBlur stdDeviation="3.70976"/>
<feComposite in2="hardAlpha" operator="arithmetic" k2="-1" k3="1"/>
<feColorMatrix type="matrix" values="0 0 0 0 0.0261111 0 0 0 0 0.374433 0 0 0 0 0.783333 0 0 0 0.25 0"/>
<feBlend mode="normal" in2="effect1_innerShadow_1948_13448" result="effect2_innerShadow_1948_13448"/>
</filter>
<filter id="filter3_f_1948_13448" x="11.8742" y="15.0818" width="46.8365" height="39.0904" filterUnits="userSpaceOnUse" color-interpolation-filters="sRGB">
<feFlood flood-opacity="0" result="BackgroundImageFix"/>
<feBlend mode="normal" in="SourceGraphic" in2="BackgroundImageFix" result="shape"/>
<feGaussianBlur stdDeviation="3.45912" result="effect1_foregroundBlur_1948_13448"/>
</filter>
<linearGradient id="paint0_linear_1948_13448" x1="33" y1="0.207031" x2="32.9556" y2="116" gradientUnits="userSpaceOnUse">
<stop stop-color="white"/>
<stop offset="1" stop-color="white" stop-opacity="0.19"/>
</linearGradient>
<linearGradient id="paint1_linear_1948_13448" x1="1" y1="-2.07177" x2="62.1746" y2="64.207" gradientUnits="userSpaceOnUse">
<stop stop-color="white" stop-opacity="0.5"/>
<stop offset="1" stop-color="white" stop-opacity="0"/>
</linearGradient>
<linearGradient id="paint2_linear_1948_13448" x1="3.93387" y1="3.18561" x2="52.5772" y2="48.2766" gradientUnits="userSpaceOnUse">
<stop stop-color="white"/>
<stop offset="1" stop-color="white" stop-opacity="0"/>
</linearGradient>
<linearGradient id="paint3_linear_1948_13448" x1="63.0781" y1="62.003" x2="13.3585" y2="15.924" gradientUnits="userSpaceOnUse">
<stop stop-color="#1637AC"/>
<stop offset="1" stop-color="#1A38A2" stop-opacity="0"/>
</linearGradient>
<linearGradient id="paint4_linear_1948_13448" x1="27.4889" y1="22.2292" x2="29.41" y2="36.4908" gradientUnits="userSpaceOnUse">
<stop stop-color="white"/>
<stop offset="0.810204" stop-color="white" stop-opacity="0"/>
</linearGradient>
</defs>
</svg>
