<svg width="24" height="24" viewBox="0 0 24 24" fill="none" xmlns="http://www.w3.org/2000/svg">
<path d="M17 18C17.5523 18 18 17.5523 18 17C18 16.4477 17.5523 16 17 16C16.4477 16 16 16.4477 16 17C16 17.5523 16.4477 18 17 18Z" stroke="#2E3346" stroke-linecap="round" stroke-linejoin="round"/>
<path d="M9.75 12.1992C11.1307 12.1992 12.25 11.0799 12.25 9.69922C12.25 8.31851 11.1307 7.19922 9.75 7.19922C8.36929 7.19922 7.25 8.31851 7.25 9.69922C7.25 11.0799 8.36929 12.1992 9.75 12.1992Z" stroke="#2E3346" stroke-linecap="round" stroke-linejoin="round"/>
<path d="M14.7955 11.7447C14.7047 11.9503 14.6776 12.1784 14.7177 12.3996C14.7578 12.6208 14.8633 12.8249 15.0205 12.9856L15.0614 13.0265C15.1882 13.1531 15.2887 13.3035 15.3574 13.4691C15.426 13.6346 15.4613 13.8121 15.4613 13.9913C15.4613 14.1705 15.426 14.3479 15.3574 14.5135C15.2887 14.679 15.1882 14.8294 15.0614 14.956C14.9347 15.0828 14.7843 15.1834 14.6188 15.252C14.4532 15.3207 14.2758 15.356 14.0966 15.356C13.9174 15.356 13.7399 15.3207 13.5744 15.252C13.4089 15.1834 13.2585 15.0828 13.1318 14.956L13.0909 14.9151C12.9302 14.7579 12.7261 14.6525 12.5049 14.6124C12.2838 14.5723 12.0556 14.5994 11.85 14.6901C11.6483 14.7766 11.4764 14.9201 11.3552 15.103C11.2341 15.2859 11.1691 15.5003 11.1682 15.7197V15.8356C11.1682 16.1972 11.0245 16.5441 10.7688 16.7998C10.5131 17.0556 10.1662 17.1992 9.80455 17.1992C9.44289 17.1992 9.09604 17.0556 8.84031 16.7998C8.58458 16.5441 8.44091 16.1972 8.44091 15.8356V15.7742C8.43563 15.5485 8.36258 15.3297 8.23126 15.1461C8.09993 14.9625 7.91641 14.8226 7.70455 14.7447C7.4989 14.6539 7.27078 14.6268 7.0496 14.6669C6.82842 14.707 6.62433 14.8125 6.46364 14.9697L6.42273 15.0106C6.29608 15.1374 6.14569 15.2379 5.98015 15.3066C5.8146 15.3752 5.63716 15.4105 5.45795 15.4105C5.27875 15.4105 5.10131 15.3752 4.93576 15.3066C4.77022 15.2379 4.61983 15.1374 4.49318 15.0106C4.3664 14.8839 4.26582 14.7335 4.19719 14.568C4.12857 14.4025 4.09325 14.225 4.09325 14.0458C4.09325 13.8666 4.12857 13.6892 4.19719 13.5236C4.26582 13.3581 4.3664 13.2077 4.49318 13.081L4.53409 13.0401C4.69128 12.8794 4.79672 12.6753 4.83682 12.4542C4.87693 12.233 4.84985 12.0049 4.75909 11.7992C4.67266 11.5976 4.52915 11.4256 4.34623 11.3044C4.1633 11.1833 3.94895 11.1183 3.72955 11.1174H3.61364C3.25198 11.1174 2.90513 10.9737 2.6494 10.718C2.39367 10.4623 2.25 10.1154 2.25 9.75376C2.25 9.39211 2.39367 9.04526 2.6494 8.78953C2.90513 8.5338 3.25198 8.39013 3.61364 8.39013H3.675C3.90068 8.38485 4.11955 8.3118 4.30316 8.18048C4.48677 8.04915 4.62662 7.86563 4.70455 7.65376C4.79531 7.44812 4.82238 7.22 4.78228 6.99882C4.74217 6.77764 4.63673 6.57355 4.47955 6.41286L4.43864 6.37195C4.31185 6.2453 4.21127 6.09491 4.14265 5.92936C4.07402 5.76382 4.0387 5.58638 4.0387 5.40717C4.0387 5.22797 4.07402 5.05052 4.14265 4.88498C4.21127 4.71944 4.31185 4.56905 4.43864 4.4424C4.56528 4.31561 4.71567 4.21503 4.88122 4.14641C5.04676 4.07779 5.22421 4.04246 5.40341 4.04246C5.58261 4.04246 5.76006 4.07779 5.9256 4.14641C6.09114 4.21503 6.24154 4.31561 6.36818 4.4424L6.40909 4.48331C6.56978 4.64049 6.77387 4.74594 6.99505 4.78604C7.21623 4.82614 7.44435 4.79907 7.65 4.70831H7.70455C7.90621 4.62188 8.07819 4.47837 8.19934 4.29545C8.32048 4.11252 8.38549 3.89816 8.38636 3.67876V3.56286C8.38636 3.2012 8.53003 2.85435 8.78576 2.59862C9.0415 2.34289 9.38834 2.19922 9.75 2.19922C10.1117 2.19922 10.4585 2.34289 10.7142 2.59862C10.97 2.85435 11.1136 3.2012 11.1136 3.56286V3.62422C11.1145 3.84362 11.1795 4.05797 11.3007 4.2409C11.4218 4.42382 11.5938 4.56733 11.7955 4.65376C12.0011 4.74452 12.2292 4.7716 12.4504 4.73149C12.6716 4.69139 12.8757 4.58595 13.0364 4.42876L13.0773 4.38786C13.2039 4.26107 13.3543 4.16049 13.5199 4.09186C13.6854 4.02324 13.8628 3.98792 14.042 3.98792C14.2212 3.98792 14.3987 4.02324 14.5642 4.09186C14.7298 4.16049 14.8802 4.26107 15.0068 4.38786C15.1336 4.5145 15.2342 4.66489 15.3028 4.83044C15.3714 4.99598 15.4068 5.17342 15.4068 5.35263C15.4068 5.53183 15.3714 5.70928 15.3028 5.87482C15.2342 6.04036 15.1336 6.19076 15.0068 6.3174L14.9659 6.35831C14.8087 6.519 14.7033 6.72309 14.6632 6.94427C14.6231 7.16545 14.6501 7.39357 14.7409 7.59922V7.65376C14.8273 7.85543 14.9708 8.02741 15.1538 8.14855C15.3367 8.2697 15.5511 8.33471 15.7705 8.33558H15.8864C16.248 8.33558 16.5949 8.47925 16.8506 8.73498C17.1063 8.99071 17.25 9.33756 17.25 9.69922C17.25 10.0609 17.1063 10.4077 16.8506 10.6635C16.5949 10.9192 16.248 11.0629 15.8864 11.0629H15.825C15.6056 11.0637 15.3912 11.1287 15.2083 11.2499C15.0254 11.371 14.8819 11.543 14.7955 11.7447V11.7447Z" stroke="#2E3346" stroke-linecap="round" stroke-linejoin="round"/>
<path d="M13.6364 15.6364C13.5844 15.7776 13.4912 15.9 13.3688 15.9875C13.2464 16.0751 13.1005 16.1238 12.95 16.1273H12.9091C12.668 16.1273 12.4368 16.2231 12.2663 16.3935C12.0958 16.564 12 16.7953 12 17.0364C12 17.2775 12.0958 17.5087 12.2663 17.6792C12.4368 17.8497 12.668 17.9455 12.9091 17.9455H12.9864C13.1326 17.946 13.2755 17.9894 13.3975 18.0701C13.5194 18.1509 13.6151 18.2656 13.6727 18.4C13.7332 18.5371 13.7513 18.6892 13.7245 18.8366C13.6978 18.9841 13.6275 19.1201 13.5227 19.2273L13.4955 19.2545C13.4109 19.339 13.3439 19.4392 13.2981 19.5496C13.2524 19.66 13.2288 19.7783 13.2288 19.8977C13.2288 20.0172 13.2524 20.1355 13.2981 20.2459C13.3439 20.3562 13.4109 20.4565 13.4955 20.5409C13.5799 20.6254 13.6801 20.6925 13.7905 20.7382C13.9009 20.784 14.0192 20.8075 14.1386 20.8075C14.2581 20.8075 14.3764 20.784 14.4868 20.7382C14.5971 20.6925 14.6974 20.6254 14.7818 20.5409L14.8091 20.5136C14.9162 20.4088 15.0523 20.3386 15.1997 20.3118C15.3472 20.2851 15.4993 20.3031 15.6364 20.3636C15.7776 20.4156 15.9 20.5088 15.9875 20.6312C16.0751 20.7536 16.1238 20.8995 16.1273 21.05V21.0909C16.1273 21.332 16.2231 21.5632 16.3935 21.7337C16.564 21.9042 16.7953 22 17.0364 22C17.2775 22 17.5087 21.9042 17.6792 21.7337C17.8497 21.5632 17.9455 21.332 17.9455 21.0909V21.0136C17.946 20.8674 17.9894 20.7245 18.0701 20.6025C18.1509 20.4806 18.2656 20.3849 18.4 20.3273C18.5371 20.2668 18.6892 20.2487 18.8366 20.2755C18.9841 20.3022 19.1201 20.3725 19.2273 20.4773L19.2545 20.5045C19.339 20.5891 19.4392 20.6561 19.5496 20.7019C19.66 20.7476 19.7783 20.7712 19.8977 20.7712C20.0172 20.7712 20.1355 20.7476 20.2459 20.7019C20.3562 20.6561 20.4565 20.5891 20.5409 20.5045C20.6254 20.4201 20.6925 20.3199 20.7382 20.2095C20.784 20.0991 20.8075 19.9808 20.8075 19.8614C20.8075 19.7419 20.784 19.6236 20.7382 19.5132C20.6925 19.4029 20.6254 19.3026 20.5409 19.2182L20.5136 19.1909C20.4088 19.0838 20.3386 18.9477 20.3118 18.8003C20.2851 18.6528 20.3031 18.5007 20.3636 18.3636C20.4213 18.2292 20.5169 18.1145 20.6389 18.0338C20.7608 17.953 20.9037 17.9097 21.05 17.9091H21.0909C21.332 17.9091 21.5632 17.8133 21.7337 17.6428C21.9042 17.4723 22 17.2411 22 17C22 16.7589 21.9042 16.5277 21.7337 16.3572C21.5632 16.1867 21.332 16.0909 21.0909 16.0909H21.0136C20.8674 16.0903 20.7245 16.047 20.6025 15.9662C20.4806 15.8855 20.3849 15.7708 20.3273 15.6364V15.6C20.2668 15.4629 20.2487 15.3108 20.2755 15.1634C20.3022 15.0159 20.3725 14.8799 20.4773 14.7727L20.5045 14.7455C20.5891 14.661 20.6561 14.5608 20.7019 14.4504C20.7476 14.34 20.7712 14.2217 20.7712 14.1023C20.7712 13.9828 20.7476 13.8645 20.7019 13.7541C20.6561 13.6438 20.5891 13.5435 20.5045 13.4591C20.4201 13.3746 20.3199 13.3075 20.2095 13.2618C20.0991 13.216 19.9808 13.1925 19.8614 13.1925C19.7419 13.1925 19.6236 13.216 19.5132 13.2618C19.4029 13.3075 19.3026 13.3746 19.2182 13.4591L19.1909 13.4864C19.0838 13.5912 18.9477 13.6614 18.8003 13.6882C18.6528 13.7149 18.5007 13.6969 18.3636 13.6364C18.2292 13.5787 18.1145 13.4831 18.0338 13.3611C17.953 13.2392 17.9097 13.0963 17.9091 12.95V12.9091C17.9091 12.668 17.8133 12.4368 17.6428 12.2663C17.4723 12.0958 17.2411 12 17 12C16.7589 12 16.5277 12.0958 16.3572 12.2663C16.1867 12.4368 16.0909 12.668 16.0909 12.9091V12.9864C16.0903 13.1326 16.047 13.2755 15.9662 13.3975" stroke="#2E3346" stroke-linecap="round" stroke-linejoin="round"/>
</svg>
