<svg width="25" height="24" viewBox="0 0 25 24" fill="none" xmlns="http://www.w3.org/2000/svg">
<path d="M17.6665 6C17.6665 6.35064 17.6063 6.68722 17.4958 7L20.6665 7C21.2188 7 21.6665 7.44772 21.6665 8V11.1707C21.3537 11.0602 21.0171 11 20.6665 11C19.0096 11 17.6665 12.3431 17.6665 14C17.6665 15.6569 19.0096 17 20.6665 17C21.0171 17 21.3537 16.9398 21.6665 16.8293V20C21.6665 20.5523 21.2188 21 20.6665 21H8.66651C8.11422 21 7.66651 20.5523 7.66651 20V16.8293C7.35373 16.9398 7.01714 17 6.6665 17C5.00965 17 3.6665 15.6569 3.6665 14C3.6665 12.3431 5.00965 11 6.6665 11C7.01714 11 7.35373 11.0602 7.66651 11.1707V8C7.66651 7.44772 8.11422 7 8.66651 7L11.8372 7C11.7267 6.68722 11.6665 6.35064 11.6665 6C11.6665 4.34315 13.0096 3 14.6665 3C16.3234 3 17.6665 4.34315 17.6665 6Z" stroke="#2E3346" stroke-linecap="round" stroke-linejoin="round"/>
</svg>
