<svg width="24" height="24" viewBox="0 0 24 24" fill="none" xmlns="http://www.w3.org/2000/svg">
<path d="M12.9999 11.268H12.4999V12.134L13.2499 11.701L12.9999 11.268ZM18.4281 8.13403L18.1781 7.70102L18.1781 7.70102L18.4281 8.13403ZM19.4281 9.86608L19.1781 9.43307L19.1781 9.43307L19.4281 9.86608ZM13.9999 13.0001L13.7499 12.567L12.9999 13.0001L13.7499 13.4331L13.9999 13.0001ZM19.4281 16.134L19.1781 16.567L19.1781 16.567L19.4281 16.134ZM19.7941 17.5001L19.3611 17.2501L19.3611 17.2501L19.7941 17.5001ZM18.4281 17.8661L18.1781 18.2991L18.1781 18.2991L18.4281 17.8661ZM12.9999 14.7321L13.2499 14.2991L12.4999 13.8661V14.7321H12.9999ZM10.9999 14.7321H11.4999V13.8661L10.7499 14.2991L10.9999 14.7321ZM5.5717 17.8661L5.8217 18.2991L5.8217 18.2991L5.5717 17.8661ZM4.20567 17.5001L3.77266 17.7501L4.20567 17.5001ZM4.5717 16.134L4.3217 15.701L4.3217 15.701L4.5717 16.134ZM9.9999 13.0001L10.2499 13.4331L10.9999 13.0001L10.2499 12.567L9.9999 13.0001ZM4.5717 9.86608L4.8217 9.43307L4.8217 9.43307L4.5717 9.86608ZM4.20567 8.50006L4.63869 8.75006L4.63869 8.75006L4.20567 8.50006ZM5.5717 8.13403L5.8217 7.70102L5.8217 7.70102L5.5717 8.13403ZM10.9999 11.268L10.7499 11.701L11.4999 12.1341V11.268H10.9999ZM11.9999 3.5C11.1715 3.5 10.4999 4.17157 10.4999 5H11.4999C11.4999 4.72386 11.7238 4.5 11.9999 4.5V3.5ZM13.4999 5C13.4999 4.17157 12.8284 3.5 11.9999 3.5V4.5C12.2761 4.5 12.4999 4.72386 12.4999 5H13.4999ZM13.4999 11.268V5H12.4999V11.268H13.4999ZM18.1781 7.70102L12.7499 10.835L13.2499 11.701L18.6781 8.56705L18.1781 7.70102ZM20.2271 8.25006C19.8129 7.53262 18.8955 7.28681 18.1781 7.70102L18.6781 8.56705C18.9173 8.42897 19.223 8.51091 19.3611 8.75006L20.2271 8.25006ZM19.6781 10.2991C20.3955 9.88488 20.6414 8.9675 20.2271 8.25006L19.3611 8.75006C19.4992 8.9892 19.4173 9.295 19.1781 9.43307L19.6781 10.2991ZM14.2499 13.4331L19.6781 10.2991L19.1781 9.43307L13.7499 12.567L14.2499 13.4331ZM13.7499 13.4331L19.1781 16.567L19.6781 15.701L14.2499 12.567L13.7499 13.4331ZM19.1781 16.567C19.4173 16.7051 19.4992 17.0109 19.3611 17.2501L20.2271 17.7501C20.6414 17.0326 20.3955 16.1152 19.6781 15.701L19.1781 16.567ZM19.3611 17.2501C19.223 17.4892 18.9173 17.5711 18.6781 17.4331L18.1781 18.2991C18.8955 18.7133 19.8129 18.4675 20.2271 17.7501L19.3611 17.2501ZM18.6781 17.4331L13.2499 14.2991L12.7499 15.1651L18.1781 18.2991L18.6781 17.4331ZM13.4999 21V14.7321H12.4999V21H13.4999ZM11.9999 22.5C12.8284 22.5 13.4999 21.8284 13.4999 21H12.4999C12.4999 21.2761 12.2761 21.5 11.9999 21.5V22.5ZM10.4999 21C10.4999 21.8284 11.1715 22.5 11.9999 22.5V21.5C11.7238 21.5 11.4999 21.2761 11.4999 21H10.4999ZM10.4999 14.7321V21H11.4999V14.7321H10.4999ZM5.8217 18.2991L11.2499 15.1651L10.7499 14.2991L5.3217 17.4331L5.8217 18.2991ZM3.77266 17.7501C4.18688 18.4675 5.10426 18.7133 5.8217 18.2991L5.3217 17.4331C5.08255 17.5711 4.77676 17.4892 4.63869 17.2501L3.77266 17.7501ZM4.3217 15.701C3.60426 16.1152 3.35845 17.0326 3.77266 17.7501L4.63869 17.2501C4.50062 17.0109 4.58255 16.7051 4.8217 16.567L4.3217 15.701ZM9.7499 12.567L4.3217 15.701L4.8217 16.567L10.2499 13.4331L9.7499 12.567ZM10.2499 12.567L4.8217 9.43307L4.3217 10.2991L9.7499 13.4331L10.2499 12.567ZM4.8217 9.43307C4.58255 9.295 4.50062 8.9892 4.63869 8.75006L3.77266 8.25006C3.35845 8.9675 3.60426 9.88488 4.3217 10.2991L4.8217 9.43307ZM4.63869 8.75006C4.77676 8.51091 5.08255 8.42897 5.3217 8.56704L5.8217 7.70102C5.10426 7.28681 4.18688 7.53262 3.77266 8.25006L4.63869 8.75006ZM5.3217 8.56704L10.7499 11.701L11.2499 10.835L5.8217 7.70102L5.3217 8.56704ZM10.4999 5V11.268H11.4999V5H10.4999Z" fill="#2E3346"/>
</svg>
