<svg width="24" height="24" viewBox="0 0 24 24" fill="none" xmlns="http://www.w3.org/2000/svg">
<path d="M4.3501 5C3.88597 5 3.44085 5.17643 3.11266 5.49049C2.78447 5.80454 2.6001 6.23049 2.6001 6.67463V19.0373C2.6001 20.3974 3.71939 21.5 5.1001 21.5H14.8501" stroke="#2E3346" stroke-linecap="round" stroke-linejoin="round"/>
<path d="M13.3501 19.75H6.1001C5.63597 19.75 5.19085 19.5688 4.86266 19.25C4.53447 18.9312 4.3501 18.5009 4.3501 18.05V4.7C4.3501 4.24913 4.53447 3.81673 4.86266 3.49792C5.19085 3.17911 5.63597 3 6.1001 3H13.3501L18.3501 9V13.65" stroke="#2E3346" stroke-linecap="round" stroke-linejoin="round"/>
<path d="M13.3501 3V9H18.3501" stroke="#2E3346" stroke-linecap="round" stroke-linejoin="round"/>
<path d="M17.3501 22C19.5592 22 21.3501 20.2091 21.3501 18C21.3501 15.7909 19.5592 14 17.3501 14C15.141 14 13.3501 15.7909 13.3501 18C13.3501 20.2091 15.141 22 17.3501 22Z" stroke="#2E3346" stroke-linecap="round" stroke-linejoin="round"/>
<path d="M15.6836 18L17.3503 19.6667L19.0169 18" stroke="#2E3346" stroke-linecap="round" stroke-linejoin="round"/>
<path d="M17.3501 16.332V19.6654" stroke="#2E3346" stroke-linecap="round" stroke-linejoin="round"/>
</svg>
