<svg width="24" height="24" viewBox="0 0 24 24" fill="none" xmlns="http://www.w3.org/2000/svg">
<path d="M20.6667 3H15.3333C14.597 3 14 3.44772 14 4V8C14 8.55228 14.597 9 15.3333 9H20.6667C21.403 9 22 8.55228 22 8V4C22 3.44772 21.403 3 20.6667 3Z" stroke="#2E3346" stroke-linecap="round" stroke-linejoin="round"/>
<path d="M8.66667 3H3.33333C2.59695 3 2 3.44772 2 4V8C2 8.55228 2.59695 9 3.33333 9H8.66667C9.40305 9 10 8.55228 10 8V4C10 3.44772 9.40305 3 8.66667 3Z" stroke="#2E3346" stroke-linecap="round" stroke-linejoin="round"/>
<path d="M6 10C6.27614 10 6.5 10.2239 6.5 10.5V11.5C6.5 11.7761 6.27614 12 6 12C5.72386 12 5.5 11.7761 5.5 11.5V10.5C5.5 10.2239 5.72386 10 6 10Z" fill="#2E3346"/>
<path d="M6 13C6.27614 13 6.5 13.2239 6.5 13.5V14.5C6.5 14.7761 6.27614 15 6 15C5.72386 15 5.5 14.7761 5.5 14.5V13.5C5.5 13.2239 5.72386 13 6 13Z" fill="#2E3346"/>
<path d="M6 16C6.27614 16 6.5 16.2239 6.5 16.5V17.5C6.5 17.7761 6.27614 18 6 18C5.72386 18 5.5 17.7761 5.5 17.5V16.5C5.5 16.2239 5.72386 16 6 16Z" fill="#2E3346"/>
<path d="M6 19C6.27614 19 6.5 19.2239 6.5 19.5V20.5C6.5 20.7761 6.27614 21 6 21C5.72386 21 5.5 20.7761 5.5 20.5V19.5C5.5 19.2239 5.72386 19 6 19Z" fill="#2E3346"/>
<path d="M18 10C18.2761 10 18.5 10.2239 18.5 10.5V11.5C18.5 11.7761 18.2761 12 18 12C17.7239 12 17.5 11.7761 17.5 11.5V10.5C17.5 10.2239 17.7239 10 18 10Z" fill="#2E3346"/>
<path d="M18 13C18.2761 13 18.5 13.2239 18.5 13.5V14.5C18.5 14.7761 18.2761 15 18 15C17.7239 15 17.5 14.7761 17.5 14.5V13.5C17.5 13.2239 17.7239 13 18 13Z" fill="#2E3346"/>
<path d="M18 16C18.2761 16 18.5 16.2239 18.5 16.5V17.5C18.5 17.7761 18.2761 18 18 18C17.7239 18 17.5 17.7761 17.5 17.5V16.5C17.5 16.2239 17.7239 16 18 16Z" fill="#2E3346"/>
<path d="M18 19C18.2761 19 18.5 19.2239 18.5 19.5V20.5C18.5 20.7761 18.2761 21 18 21C17.7239 21 17.5 20.7761 17.5 20.5V19.5C17.5 19.2239 17.7239 19 18 19Z" fill="#2E3346"/>
<path d="M8 15.5H16M16 15.5L14.5 13.5M16 15.5L14.5 17.5" stroke="#2E3346" stroke-linecap="round" stroke-linejoin="round"/>
</svg>
