<svg width="25" height="24" viewBox="0 0 25 24" fill="none" xmlns="http://www.w3.org/2000/svg">
<rect x="7.63818" y="13.0625" width="4.95794" height="2.65564" rx="0.269972" transform="rotate(45 7.63818 13.0625)" stroke="#2E3346"/>
<path fill-rule="evenodd" clip-rule="evenodd" d="M8.2226 8.61105L14.4194 2.41421L21.6944 9.68918L15.4675 15.916C14.8887 16.4949 13.9502 16.4949 13.3713 15.916L13.2948 15.8396C12.3726 14.9174 10.8805 14.9125 9.95227 15.8248L10.5733 16.4459C10.6043 16.4768 10.6261 16.5134 10.6389 16.5523L10.6445 16.5467C11.1811 16.0101 12.0511 16.0101 12.5877 16.5467L12.6642 16.6232C13.6336 17.5925 15.2053 17.5925 16.1746 16.6232L22.4687 10.3291C22.8221 9.97567 22.8221 9.40269 22.4687 9.04928L15.0593 1.6399C14.7059 1.28649 14.1329 1.28649 13.7795 1.6399L7.51549 7.90394C6.52953 8.8899 6.52953 10.4885 7.51549 11.4744C8.07822 12.0371 8.10913 12.9303 7.6082 13.5294C7.65124 13.5415 7.69188 13.5644 7.72575 13.5983L8.33984 14.2124C9.20687 13.2207 9.16778 11.7125 8.2226 10.7673C7.62716 10.1719 7.62716 9.20648 8.2226 8.61105ZM6.88154 15.6788L6.26338 15.0607C6.23126 15.0286 6.20893 14.9904 6.19638 14.9498L3.70715 17.439C2.8725 18.2737 2.8725 19.6269 3.70715 20.4615C4.54179 21.2962 5.89502 21.2962 6.72966 20.4615L9.1974 17.9938L9.21736 17.9738C9.17846 17.9611 9.1419 17.9392 9.11097 17.9083L8.48984 17.2871L6.02256 19.7544C5.57844 20.1985 4.85837 20.1985 4.41425 19.7544C3.97013 19.3103 3.97013 18.5902 4.41425 18.1461L6.88154 15.6788Z" fill="#2E3346"/>
<path d="M8.79443 7.64844L16.7752 15.6292" stroke="#2E3346"/>
<path d="M15.3647 2.94922L13.0175 5.2965" stroke="#2E3346" stroke-linecap="round" stroke-linejoin="round"/>
<path d="M16.7749 4.35938L13.0193 8.11502" stroke="#2E3346" stroke-linecap="round" stroke-linejoin="round"/>
<path d="M18.1812 5.76562L16.7728 7.17399" stroke="#2E3346" stroke-linecap="round" stroke-linejoin="round"/>
<path d="M19.5913 7.17578L17.244 9.52306" stroke="#2E3346" stroke-linecap="round" stroke-linejoin="round"/>
<path d="M20.9976 8.58594L19.5892 9.99431" stroke="#2E3346" stroke-linecap="round" stroke-linejoin="round"/>
</svg>
