<svg width="24" height="24" viewBox="0 0 24 24" fill="none" xmlns="http://www.w3.org/2000/svg">
<path d="M6.70699 5.42761V5.29364C6.70699 5.18886 6.77964 5.09849 6.88232 5.07758C7.67167 4.91682 9.33221 4.60972 10.9371 4.41096C10.9943 4.40387 11.0519 4.41875 11.096 4.4558C12.1235 5.3187 12.7776 7.71243 13.0163 9.00519C13.0307 9.08332 13.1327 9.10581 13.1785 9.04086C13.8694 8.06017 15.1678 6.25307 15.698 5.64925C16.4032 4.84618 17.1966 4.40002 18.2543 4.40002C19.3121 4.40002 20.0173 5.38156 19.5765 6.3631C19.1358 7.34464 17.6014 7.43103 17.3729 6.63079C17.3482 6.54435 17.125 6.45233 16.7724 6.63079C16.4198 6.80925 16.0422 7.39565 15.6014 7.93103C15.2637 8.34135 14.0881 10.1729 13.6541 10.849L13.6529 10.8509C13.6197 10.9025 13.6099 10.9644 13.6247 11.0239C13.9444 12.3084 14.3456 14.3106 14.5521 15.2862C14.8166 16.5354 14.9047 17.3385 15.4336 17.5169C15.9625 17.6954 16.3151 17.3385 16.844 16.8031C17.199 16.4436 17.579 15.8496 17.7962 15.4745C17.8564 15.3704 17.9872 15.3294 18.0945 15.3837L18.2348 15.4547C18.3433 15.5096 18.387 15.6412 18.3279 15.7474C18.1016 16.1544 17.6104 16.9486 16.844 17.9631C15.698 19.48 14.3758 19.48 13.6706 19.1231C12.9655 18.7662 12.701 17.6954 12.4366 16.7139C12.24 15.9841 11.8948 14.4031 11.6819 13.4672C11.6646 13.3911 11.5652 13.3724 11.5216 13.4371C10.5777 14.8385 8.52561 17.558 7.64626 18.5851C6.50034 19.9236 5.29663 19.6585 4.59144 19.0338C3.88626 18.4092 3.88626 17.0708 4.94403 16.8031C5.84187 16.5759 6.35866 17.1201 6.54832 17.399C6.59575 17.4687 6.66991 17.4998 6.73386 17.4448C6.91384 17.29 7.25394 16.9018 7.60144 16.431C8.24518 15.559 8.48441 15.3233 9.10144 14.431C9.57736 13.7428 10.6942 12.1736 11.0634 11.5022C11.0886 11.4563 11.0948 11.4031 11.0844 11.3517C11.0097 10.9828 10.9814 10.554 10.8499 10.0216C10.6736 9.30771 10.4092 7.88002 9.79216 6.72002C9.17512 5.56002 7.67661 5.64925 7.41217 5.64925H6.92857C6.80616 5.64925 6.70699 5.55002 6.70699 5.42761Z" stroke="#2E3346" stroke-linecap="round"/>
</svg>
