<svg width="24" height="24" viewBox="0 0 24 24" fill="none" xmlns="http://www.w3.org/2000/svg">
<path d="M16.6099 20.1117V3.88528C16.6099 3.56491 16.9419 3.35242 17.2328 3.48664L20.4899 4.98944C20.8009 5.13294 21.0001 5.44419 21.0001 5.78672V18.4096C21.0001 18.7687 20.7815 19.0915 20.4482 19.2249L17.2119 20.5194C16.9236 20.6347 16.6099 20.4223 16.6099 20.1117Z" stroke="#2E3346"/>
<path d="M16.2885 20.7062C16.5 20.8836 16.8154 20.856 16.9929 20.6444C17.1703 20.4328 17.1426 20.1174 16.9311 19.94L16.2885 20.7062ZM3.73435 9.52435L3.41304 9.90744L3.73435 9.52435ZM4.03128 8.58427L4.5744 8.04115L3.86729 7.33404L3.32417 7.87717L4.03128 8.58427ZM5.06675 8.00469L16.3121 16.3346L16.9074 15.5311L5.66197 7.20113L5.06675 8.00469ZM16.9311 19.94L4.05566 9.14125L3.41304 9.90744L16.2885 20.7062L16.9311 19.94ZM4.5744 8.04115C4.70683 7.90872 4.91625 7.89321 5.06675 8.00469L5.66197 7.20113C5.11341 6.79478 4.35002 6.85132 3.86729 7.33404L4.5744 8.04115ZM3.32417 7.87717C2.7524 8.44893 2.7935 9.38783 3.41304 9.90744L4.05566 9.14125C3.88569 8.9987 3.87442 8.74113 4.03128 8.58427L3.32417 7.87717Z" fill="#2E3346"/>
<path d="M6.5122 11.9805L3.70632 14.4356C3.32407 14.7701 3.30449 15.3581 3.66364 15.7173L4.2352 16.2888C4.53647 16.5901 5.01055 16.6316 5.3596 16.3873L9.14634 13.7366" stroke="#2E3346"/>
<path d="M16.6097 3.63672L12.4389 6.9294L10.3536 8.57574L9.31089 9.39892L8.78955 9.8105M16.6097 8.02696L11.3414 11.9782" stroke="#2E3346" stroke-linecap="round" stroke-linejoin="round"/>
</svg>
