<svg width="25" height="24" viewBox="0 0 25 24" fill="none" xmlns="http://www.w3.org/2000/svg">
<path d="M3.6665 6L21.6665 6" stroke="#2E3346" stroke-linecap="round" stroke-linejoin="round"/>
<path d="M4.66651 20L20.6665 20C21.2188 20 21.6665 19.5523 21.6665 19L21.6665 5C21.6665 4.44771 21.2188 4 20.6665 4L4.6665 4C4.11422 4 3.6665 4.44772 3.6665 5L3.66651 19C3.66651 19.5523 4.11422 20 4.66651 20Z" stroke="#2E3346" stroke-linecap="round" stroke-linejoin="round"/>
<path d="M17.6665 9H19.6665" stroke="#2E3346" stroke-linecap="round" stroke-linejoin="round"/>
<path d="M17.6665 12H19.6665" stroke="#2E3346" stroke-linecap="round" stroke-linejoin="round"/>
<path d="M17.6665 17H19.6665" stroke="#2E3346" stroke-linecap="round" stroke-linejoin="round"/>
<path d="M9.6665 9H15.6665" stroke="#2E3346" stroke-linecap="round" stroke-linejoin="round"/>
<path d="M9.6665 12H15.6665" stroke="#2E3346" stroke-linecap="round" stroke-linejoin="round"/>
<path d="M9.6665 17H15.6665" stroke="#2E3346" stroke-linecap="round" stroke-linejoin="round"/>
<path d="M6.6665 9H5.6665" stroke="#2E3346" stroke-linecap="round" stroke-linejoin="round"/>
<path d="M6.6665 12H5.6665" stroke="#2E3346" stroke-linecap="round" stroke-linejoin="round"/>
<path d="M6.6665 17H5.6665" stroke="#2E3346" stroke-linecap="round" stroke-linejoin="round"/>
</svg>
