<svg width="25" height="24" viewBox="0 0 25 24" fill="none" xmlns="http://www.w3.org/2000/svg">
<path d="M19.6665 3H5.6665C4.56193 3 3.6665 3.89543 3.6665 5V19C3.6665 20.1046 4.56193 21 5.6665 21H19.6665C20.7711 21 21.6665 20.1046 21.6665 19V5C21.6665 3.89543 20.7711 3 19.6665 3Z" stroke="#2E3346" stroke-linecap="round" stroke-linejoin="round"/>
<path d="M21.6665 15L16.6665 10L5.6665 21" stroke="#2E3346" stroke-linecap="round" stroke-linejoin="round"/>
<path d="M9.1665 10C9.99493 10 10.6665 9.32843 10.6665 8.5C10.6665 7.67157 9.99493 7 9.1665 7C8.33808 7 7.6665 7.67157 7.6665 8.5C7.6665 9.32843 8.33808 10 9.1665 10Z" stroke="#2E3346" stroke-linecap="round" stroke-linejoin="round"/>
</svg>
